<?xml version="1.0" encoding="UTF-8" standalone="no"?>
<svg
   xmlns:dc="http://purl.org/dc/elements/1.1/"
   xmlns:cc="http://creativecommons.org/ns#"
   xmlns:rdf="http://www.w3.org/1999/02/22-rdf-syntax-ns#"
   xmlns:svg="http://www.w3.org/2000/svg"
   xmlns="http://www.w3.org/2000/svg"
   aria-hidden="true"
   focusable="false"
   data-prefix="fal"
   data-icon="shopping-cart"
   role="img"
   viewBox="0 0 576 512"
   class="svg-inline--fa fa-shopping-cart fa-w-18 fa-3x"
   version="1.1"
   id="svg4">
  <metadata
     id="metadata10">
    <rdf:RDF>
      <cc:Work
         rdf:about="">
        <dc:format>image/svg+xml</dc:format>
        <dc:type
           rdf:resource="http://purl.org/dc/dcmitype/StillImage" />
        <dc:title></dc:title>
      </cc:Work>
    </rdf:RDF>
  </metadata>
  <defs
     id="defs8" />
  <path
     id="path2"
     d="M 12 0 C 5.373 0 0 5.373 0 12 L 0 20 C 0 26.627 5.373 32 12 32 L 90.720703 32 C 106.00012 118.33122 130.83118 264.07309 140.5293 320.15039 L 177.2793 320 L 508.66016 320 C 520.02816 320 529.83725 312.02353 532.15625 300.89453 L 575.48828 92.894531 C 578.59228 77.990531 567.21423 64 551.99023 64 L 129.2793 64 L 120.95117 19.576172 C 118.82217 8.2251718 108.91033 -2.3684758e-15 97.361328 0 L 12 0 z M 135.2793 96 L 542.15625 96 L 502.15625 288 L 171.2793 288 L 135.2793 96 z M 206.20117 378.66211 C 171.10361 378.66211 142.33008 407.43564 142.33008 442.5332 C 142.33008 477.63077 171.10361 506.40625 206.20117 506.40625 C 241.29874 506.40625 270.07422 477.63077 270.07422 442.5332 C 270.07422 407.43564 241.29874 378.66211 206.20117 378.66211 z M 462.6582 379.60938 C 427.56064 379.60938 398.78516 408.38486 398.78516 443.48242 C 398.78516 478.57999 427.56064 507.35352 462.6582 507.35352 C 497.75577 507.35352 526.5293 478.57999 526.5293 443.48242 C 526.5293 408.38486 497.75577 379.60935 462.6582 379.60938 z M 206.20117 408.66211 C 225.08553 408.66211 240.07422 423.64884 240.07422 442.5332 C 240.07422 461.41756 225.08553 476.40625 206.20117 476.40625 C 187.31681 476.40625 172.33008 461.41756 172.33008 442.5332 C 172.33008 423.64884 187.31681 408.66211 206.20117 408.66211 z M 462.6582 409.60938 C 481.54256 409.60938 496.5293 424.59806 496.5293 443.48242 C 496.5293 462.36678 481.54256 477.35352 462.6582 477.35352 C 443.77384 477.35352 428.78516 462.36678 428.78516 443.48242 C 428.78516 424.59806 443.77384 409.60936 462.6582 409.60938 z " />
</svg>
